<svg xmlns="http://www.w3.org/2000/svg" width="46" height="46.027" viewBox="0 0 46 46.027"><defs><style>.a{fill:rgba(29,53,87,0.87);}</style></defs><path class="a" d="M25.533,46.027H20.412a2.468,2.468,0,0,1-1.793-.768,2.336,2.336,0,0,1-.77-1.8V37.4a.825.825,0,0,0-.434-.712.946.946,0,0,1-.08-.06.866.866,0,0,0-.352-.074.81.81,0,0,0-.586.247l-4.441,4.44a2.332,2.332,0,0,1-1.791.767,2.469,2.469,0,0,1-1.8-.767L4.785,37.658a2.359,2.359,0,0,1-.768-1.71,2.577,2.577,0,0,1,.768-1.874l4.438-4.44A.879.879,0,0,0,9.471,29a.492.492,0,0,0-.076-.3.541.541,0,0,0-.16-.256.83.83,0,0,0-.607-.256H2.563a2.328,2.328,0,0,1-1.791-.771A2.332,2.332,0,0,1,0,25.619V20.493a2.507,2.507,0,0,1,2.563-2.562H8.709a.9.9,0,0,0,.693-.364.648.648,0,0,1,.164-.148.838.838,0,0,0-.172-.939L4.867,11.952A2.3,2.3,0,0,1,4.1,10.16a2.459,2.459,0,0,1,.768-1.791L8.455,4.78a2.364,2.364,0,0,1,1.762-.769,2.572,2.572,0,0,1,1.826.769l4.439,4.441a.886.886,0,0,0,.625.247.528.528,0,0,0,.314-.075.8.8,0,0,0,.514-.771V2.558A2.5,2.5,0,0,1,20.5,0h5.121a2.341,2.341,0,0,1,1.8.766,2.337,2.337,0,0,1,.766,1.792l.088,5.979a.822.822,0,0,0,.434.713l.016.011a.628.628,0,0,1,.063.048.83.83,0,0,0,.352.076.809.809,0,0,0,.588-.249L34.074,4.78a2.364,2.364,0,0,1,1.762-.769,2.565,2.565,0,0,1,1.826.769l3.584,3.589a2.35,2.35,0,0,1,.768,1.705,2.593,2.593,0,0,1-.768,1.878l-4.523,4.526a.885.885,0,0,0-.248.636.5.5,0,0,0,.076.3.543.543,0,0,0,.158.255.858.858,0,0,0,.613.258h6.232a2.337,2.337,0,0,1,1.791.771,1.762,1.762,0,0,1,.6,1.792v5.126a2.507,2.507,0,0,1-2.562,2.563H37.322a.827.827,0,0,0-.711.431.442.442,0,0,1-.061.081.822.822,0,0,0,.172.939l4.441,4.44a2.3,2.3,0,0,1,.768,1.792,2.429,2.429,0,0,1-.768,1.792l-3.588,3.588a2.329,2.329,0,0,1-1.791.767,2.473,2.473,0,0,1-1.8-.767l-4.441-4.44a1.05,1.05,0,0,0-.65-.247.451.451,0,0,0-.287.074.806.806,0,0,0-.514.771v6.06A2.507,2.507,0,0,1,25.533,46.027ZM23.057,14.515A8.542,8.542,0,1,0,31.6,23.057,8.55,8.55,0,0,0,23.057,14.515Z"/></svg>